<svg width="16" height="12" viewBox="0 0 16 12" fill="none" xmlns="http://www.w3.org/2000/svg">
<path d="M13.5655 1.01348C13.5611 1.005 13.5537 0.998354 13.5447 0.994733C12.5074 0.526213 11.4126 0.192122 10.288 0.000819476C10.2777 -0.00105046 10.2672 0.000298533 10.2578 0.00467461C10.2484 0.00905069 10.2406 0.0162311 10.2356 0.0251945C10.0866 0.291523 9.95124 0.565086 9.83018 0.84484C8.61784 0.663683 7.38466 0.663683 6.17232 0.84484C6.05046 0.564375 5.91297 0.290744 5.76048 0.0251945C5.75525 0.0164258 5.74746 0.00941086 5.73812 0.0050632C5.72878 0.000715549 5.71833 -0.000763251 5.70813 0.000819476C4.58333 0.19172 3.48853 0.525837 2.4513 0.99476C2.44242 0.998465 2.43493 1.00479 2.42986 1.01287C0.355589 4.06211 -0.21263 7.03638 0.0661189 9.97381C0.0669031 9.98101 0.06915 9.98798 0.0727261 9.99431C0.0763022 10.0006 0.0811344 10.0062 0.0869353 10.0106C1.29476 10.891 2.64573 11.5629 4.08219 11.9979C4.0923 12.0008 4.10311 12.0007 4.11314 11.9975C4.12318 11.9942 4.13197 11.988 4.13832 11.9797C4.44684 11.5665 4.72022 11.1289 4.95566 10.6715C4.9589 10.6652 4.96074 10.6583 4.96108 10.6513C4.96142 10.6443 4.96024 10.6372 4.95762 10.6307C4.955 10.6241 4.951 10.6182 4.94588 10.6133C4.94076 10.6084 4.93465 10.6046 4.92793 10.6022C4.49684 10.4398 4.0795 10.2441 3.67982 10.0168C3.67256 10.0126 3.66646 10.0067 3.66206 9.99963C3.65767 9.99256 3.65511 9.98453 3.65461 9.97626C3.65411 9.96798 3.65569 9.95971 3.65921 9.95218C3.66273 9.94465 3.66808 9.93809 3.67478 9.93307C3.75865 9.87122 3.84257 9.80688 3.92265 9.7419C3.92976 9.73613 3.93837 9.73243 3.94751 9.73122C3.95664 9.73001 3.96594 9.73133 3.97435 9.73504C6.59284 10.9114 9.4277 10.9114 12.0152 9.73504C12.0236 9.7311 12.033 9.72959 12.0423 9.73069C12.0516 9.7318 12.0603 9.73547 12.0675 9.74128C12.1477 9.80627 12.2315 9.87122 12.316 9.93307C12.3228 9.93804 12.3282 9.94456 12.3318 9.95206C12.3353 9.95956 12.337 9.96782 12.3365 9.9761C12.3361 9.98437 12.3336 9.99241 12.3293 9.99951C12.3249 10.0066 12.3189 10.0126 12.3116 10.0168C11.9129 10.246 11.4951 10.4416 11.0629 10.6015C11.0562 10.6041 11.0501 10.6079 11.045 10.6129C11.0399 10.6179 11.036 10.6239 11.0334 10.6305C11.0309 10.6371 11.0297 10.6442 11.0301 10.6512C11.0305 10.6583 11.0324 10.6652 11.0357 10.6715C11.2751 11.1264 11.5481 11.5634 11.8524 11.979C11.8586 11.9875 11.8673 11.9939 11.8774 11.9973C11.8875 12.0007 11.8984 12.0008 11.9086 11.9978C13.3476 11.5643 14.7009 10.8923 15.9103 10.0106C15.9161 10.0064 15.921 10.001 15.9246 9.99475C15.9282 9.9885 15.9304 9.98158 15.9311 9.97443C16.2648 6.57845 15.3724 3.62855 13.5655 1.01348ZM5.34671 8.18522C4.55835 8.18522 3.90877 7.47306 3.90877 6.59845C3.90877 5.72385 4.54575 5.01164 5.34671 5.01164C6.15392 5.01164 6.79722 5.73003 6.78462 6.5984C6.78462 7.47306 6.14761 8.18522 5.34671 8.18522ZM10.6632 8.18522C9.87486 8.18522 9.22528 7.47306 9.22528 6.59845C9.22528 5.72385 9.86226 5.01164 10.6632 5.01164C11.4705 5.01164 12.1137 5.73003 12.1011 6.5984C12.1011 7.47306 11.4705 8.18522 10.6632 8.18522Z" fill="white"/>
</svg>
