<svg width="15" height="15" viewBox="0 0 15 15" fill="none" xmlns="http://www.w3.org/2000/svg">
<path d="M14.1719 0H0.828125C0.370625 0 0 0.370625 0 0.828125V14.1725C0 14.6294 0.370625 15 0.828125 15H8.0125V9.19125H6.0575V6.9275H8.0125V5.25813C8.0125 3.32063 9.19563 2.26562 10.9244 2.26562C11.7525 2.26562 12.4638 2.3275 12.6713 2.355V4.38L11.4725 4.38062C10.5325 4.38062 10.3506 4.8275 10.3506 5.4825V6.92813H12.5925L12.3006 9.19187H10.3506V15H14.1731C14.6294 15 15 14.6294 15 14.1719V0.828125C15 0.370625 14.6294 0 14.1719 0V0Z" fill="#8E9FB4"/>
</svg>
